<?xml version="1.0" encoding="UTF-8"?>
<svg width="120px" height="126px" viewBox="0 0 120 126" version="1.1" xmlns="http://www.w3.org/2000/svg" xmlns:xlink="http://www.w3.org/1999/xlink">
    <!-- Generator: Sketch 44.1 (41455) - http://www.bohemiancoding.com/sketch -->
    <title>logo</title>
    <desc>Created with Sketch.</desc>
    <defs></defs>
    <g id="Page-1" stroke="none" stroke-width="1" fill="none" fill-rule="evenodd">
        <g id="logo">
            <path d="M57.8153906,36.609265 C70.0324219,36.609265 79.9434375,46.8193217 79.9434375,59.4170209 C79.9434375,79.937726 62.2410937,93.6210164 57.8153906,93.6210164 C53.3896875,93.6210164 35.6871094,79.937726 35.6871094,59.4149057 C35.6871094,46.8193217 45.5983594,36.609265 57.8153906,36.609265 Z M57.8153906,68.5370209 C62.7035156,68.5370209 66.6665625,64.4527162 66.6665625,59.4149057 C66.6665625,54.3770951 62.7035156,50.2925554 57.8153906,50.2925554 C52.9272656,50.2925554 48.9642187,54.3770951 48.9642187,59.4149057 C48.9642187,64.4527162 52.9272656,68.5370209 57.8153906,68.5370209 L57.8153906,68.5370209 Z" id="Shape" fill="#4F95FF" fill-rule="nonzero"></path>
            <g id="Path" transform="translate(0.000000, 4.230492)" fill="#4F95FF">
                <path d="M105.761484,82.7799113 L110.206172,85.2566292 C100.949766,105.469684 80.9939063,119.456159 57.8683594,119.456159 C50.5975781,119.456159 43.6401563,118.073728 37.23,115.549535 L40.7163281,111.322804 C46.0940625,113.225585 51.8641406,114.25853 57.8683594,114.25853 C79.0769531,114.25853 97.3647656,101.371042 105.761484,82.7799113 L105.761484,82.7799113 Z M22.8086719,12.4251892 L26.7764063,15.8589383 C13.6185938,25.7549985 5.06953125,41.7702299 5.06953125,59.8433605 C5.06953125,73.2387424 9.7659375,85.5036429 17.5544531,94.9844099 L14.7274219,99.5538109 C5.58445313,89.0109556 0.02625,75.0961633 0.02625,59.8433605 C0.02625,40.5046078 8.96132813,23.31659 22.8086719,12.4251892 Z M54.1305469,0.352776002 C55.3664062,0.271456551 56.6125781,0.23032677 57.8683594,0.23032677 C89.5725,0.23032677 115.319297,26.5186022 115.706016,59.099029 L110.577656,56.6495743 C108.973594,28.0834141 85.9882031,5.42795588 57.8683594,5.42795588 C57.3897656,5.42795588 56.9128125,5.43453665 56.4372656,5.44769818 L57.8683594,3.12539326 L54.1305469,0.352776002 Z" id="Shape"></path>
            </g>
            <ellipse id="Oval" fill="#5498FF" cx="22.3448437" cy="20.5700608" rx="6.6384375" ry="6.84164519"></ellipse>
            <ellipse id="Oval.-Copy.-2" fill="#5498FF" cx="16.0134375" cy="100.382517" rx="6.6384375" ry="6.84164519"></ellipse>
            <ellipse id="Oval.-Copy.-3" fill="#5498FF" cx="42.2634375" cy="118.479621" rx="6.6384375" ry="6.84164519"></ellipse>
            <ellipse id="Oval.-Copy.-4" fill="#5498FF" cx="105.544687" cy="93.5667251" rx="6.6384375" ry="6.84164519"></ellipse>
            <ellipse id="Oval.-Copy.-5" fill="#5498FF" cx="113.286094" cy="61.4582332" rx="6.6384375" ry="6.84164519"></ellipse>
            <ellipse id="Oval.-Copy" fill="#5498FF" cx="53.42625" cy="6.84164519" rx="6.6384375" ry="6.84164519"></ellipse>
        </g>
    </g>
</svg>